 <!-- <svg  version="1.0" xmlns="http://www.w3.org/2000/svg"  width="512.000000pt" height="512.000000pt" viewBox="0 0 512.000000 512.000000"  preserveAspectRatio="xMidYMid meet">  <g transform="translate(0.000000,512.000000) scale(0.100000,-0.100000)" fill="#009bd6" stroke="none"> <path d="M1984 5100 c-149 -39 -272 -124 -352 -244 -129 -193 -144 -394 -44 -606 51 -109 167 -223 279 -276 l83 -39 0 -221 0 -220 210 -285 c115 -156 214 -291 219 -299 7 -12 -52 -84 -256 -315 -261 -294 -267 -300 -307 -303 l-41 -3 -34 73 c-49 103 -167 221 -271 271 -81 38 -200 67 -278 67 -68 0 -194 -34 -272 -72 -84 -42 -203 -160 -248 -245 -63 -120 -86 -271 -61 -409 30 -170 166 -344 329 -422 99 -47 163 -62 263 -62 279 1 517 190 587 468 l11 42 89 0 89 0 139 157 c313 356 434 488 445 488 6 0 58 -63 114 -140 57 -77 179 -243 273 -370 166 -225 169 -231 170 -280 l0 -50 -89 -43 c-294 -141 -419 -494 -282 -789 80 -170 221 -286 409 -334 198 -50 408 8 558 156 39 38 84 92 99 119 134 230 105 519 -70 714 -53 58 -158 131 -227 157 l-48 18 0 111 -1 111 -329 445 c-181 245 -329 450 -330 456 0 6 98 122 218 256 119 134 255 288 302 341 l84 97 133 0 133 0 0 140 0 140 -198 0 -199 0 -150 -167 c-83 -93 -228 -256 -322 -363 -95 -107 -175 -196 -180 -198 -7 -2 -28 25 -233 307 l-98 134 0 157 c0 171 -1 167 60 190 55 21 161 93 207 141 100 105 163 263 163 410 0 174 -56 306 -181 430 -153 153 -363 212 -565 159z m293 -281 c64 -31 129 -98 161 -167 22 -46 26 -72 27 -137 0 -71 -4 -88 -33 -147 -60 -123 -167 -191 -301 -190 -45 0 -94 6 -120 16 -132 48 -220 176 -221 318 -1 251 262 416 487 307z m-922 -2421 c70 -36 137 -111 165 -184 30 -81 25 -196 -13 -269 -109 -212 -377 -256 -542 -90 -88 87 -122 221 -87 341 27 91 106 176 205 217 65 27 206 19 272 -15z m2082 -863 c61 -27 133 -96 163 -154 76 -149 26 -343 -113 -434 -68 -45 -112 -58 -189 -58 -140 0 -270 89 -318 216 -43 117 -16 262 67 351 100 107 256 139 390 79z"/> </g> </svg>  -->

 <svg xmlns="http://www.w3.org/2000/svg" width="512" height="512" xml:space="preserve"><g fill-rule="evenodd" clip-rule="evenodd"><path fill="#1E62D6" d="M128 352c53.023 0 96-42.977 96-96h32c0 70.688-57.309 128-128 128S0 326.688 0 256c0-70.691 57.309-128 128-128 31.398 0 60.141 11.344 82.406 30.117l-.039.059c3.414 2.93 5.625 7.215 5.625 12.082 0 8.824-7.156 16-16 16-3.859 0-7.371-1.434-10.145-3.723l-.039.059C173.109 168.516 151.562 160 128 160c-53.023 0-96 42.977-96 96s42.977 96 96 96z"/><path fill="#FF0083" d="M352 384c-8.844 0-16-7.156-16-16s7.156-16 16-16c53.023 0 96-42.977 96-96s-42.977-96-96-96-96 42.977-96 96h-32c0-70.691 57.312-128 128-128s128 57.309 128 128c0 70.688-57.312 128-128 128zm-64-48c8.844 0 16 7.156 16 16s-7.156 16-16 16-16-7.156-16-16 7.156-16 16-16z"/></g></svg>

 